# xmcd
#
# Track frame offsets: 
#        150
#        21942
#        48740
#        74145
#        98610
#        122644
#        146621
#        168292
#
# Disc length: 2545 seconds
#
# Revision: 0
# Processed by: cddbd v1.5.2PL0 Copyright (c) Steve Scherf et al.
# Submitted via: ExactAudioCopyFreeDBPlugin 1.0
#
DISCID=7109ef08
DTITLE=Thanh Lam - L:am Blue ta
DYEAR=1900
DGENRE=
TTITLE0=Itzen len ray
TTITLE1=Trang khat
TTITLE2=Ngau hung song hong
TTITLE3=Con trai be bong
TTITLE4=Bong toi ly cafe
TTITLE5=Buong
TTITLE6=Oi que toi
TTITLE7=Tuy hung ly ngua o
EXTD=
EXTT0=
EXTT1=
EXTT2=
EXTT3=
EXTT4=
EXTT5=
EXTT6=
EXTT7=
PLAYORDER=
